<?xml version="1.0" encoding="iso-8859-1"?>
<svg xmlns="http://www.w3.org/2000/svg" viewBox="0 0 32.857 32.857" width="512px" height="512px">
  <g>
    <path fill="#FFFFFF" d="M16.428,32.857C7.36,32.857,0,25.497,0,16.428S7.36,0,16.428,0s16.429,7.36,16.429,16.428S25.497,32.857,16.428,32.857z
      M16.428,1C7.923,1,1,7.923,1,16.428c0,8.505,6.923,15.429,15.428,15.429c8.506,0,15.429-6.924,15.429-15.429
      C31.857,7.923,24.934,1,16.428,1z"/>
    <path fill="#FFFFFF" d="M10.5,21.857c-0.128,0-0.256-0.049-0.354-0.146c-0.195-0.195-0.195-0.512,0-0.707l3.793-3.793L10.146,13.42
      c-0.195-0.195-0.195-0.512,0-0.707s0.512-0.195,0.707,0l4.147,4.147c0.195,0.195,0.195,0.512,0,0.707l-4.147,4.147
      C10.756,21.808,10.628,21.857,10.5,21.857z"/>
    <path fill="#FFFFFF" d="M22.357,21.857c-0.128,0-0.256-0.049-0.354-0.146l-4.147-4.147c-0.195-0.195-0.195-0.512,0-0.707
      l4.147-4.147c0.195-0.195,0.512-0.195,0.707,0s0.195,0.512,0,0.707l-3.793,3.793l3.793,3.793c0.195,0.195,0.195,0.512,0,0.707
      C22.613,21.808,22.485,21.857,22.357,21.857z"/>
  </g>
</svg>
