<?xml version="1.0" encoding="iso-8859-1"?>
<svg xmlns="http://www.w3.org/2000/svg" viewBox="0 0 32.857 32.857" width="512px" height="512px">
  <g>
    <path fill="#FFFFFF" d="M16.428,32.857C7.36,32.857,0,25.497,0,16.428S7.36,0,16.428,0s16.429,7.36,16.429,16.428S25.497,32.857,16.428,32.857z
      M16.428,1C7.923,1,1,7.923,1,16.428c0,8.505,6.923,15.429,15.428,15.429c8.506,0,15.429-6.924,15.429-15.429
      C31.857,7.923,24.934,1,16.428,1z"/>
    <path fill="#FFFFFF" d="M10,20c0,3,2.5,5.5,5.5,5.5S21,23,21,20v-3h-11V20z M24,17h-2v2h2c0.6,0,1,0.4,1,1s-0.4,1-1,1h-2v2h2
      c1.7,0,3-1.3,3-3S25.7,17,24,17z"/>
    <path fill="none" stroke="#FFFFFF" stroke-width="1.5" d="M13 12c0-1 1-2 1-3s-1-2-1-3M17 12c0-1 1-2 1-3s-1-2-1-3"/>
  </g>
</svg>
